<svg xmlns="http://www.w3.org/2000/svg" data-name="Layer 1" viewBox="0 0 24 30" x="0px" y="0px"><title>a</title><path d="M16.35,15.65h0a8.48,8.48,0,0,0,0-11.26.5.5,0,1,0-.76.66A7.42,7.42,0,1,1,13.75,3.5a.5.5,0,1,0,.5-.86,8.51,8.51,0,1,0,1.39,13.7h0l6,6a.48.48,0,0,0,.7,0,.48.48,0,0,0,0-.7Z"/><path d="M10,5.5A2.5,2.5,0,1,0,12.5,8,2.5,2.5,0,0,0,10,5.5Zm0,4A1.5,1.5,0,1,1,11.5,8,1.5,1.5,0,0,1,10,9.5Z"/><path d="M12,16.5a.5.5,0,0,0,.5-.5V13A1.5,1.5,0,0,0,11,11.5H9A1.5,1.5,0,0,0,7.5,13v3a.5.5,0,0,0,1,0V13a.5.5,0,0,1,.5-.5h.5V14a.5.5,0,0,0,1,0V12.5H11a.5.5,0,0,1,.5.5v3A.5.5,0,0,0,12,16.5Z"/><text x="0" y="39" fill="#000000" font-size="5px" font-weight="bold" font-family="'Helvetica Neue', Helvetica, Arial-Unicode, Arial, Sans-serif">Created by Berkah Icon</text><text x="0" y="44" fill="#000000" font-size="5px" font-weight="bold" font-family="'Helvetica Neue', Helvetica, Arial-Unicode, Arial, Sans-serif">from the Noun Project</text></svg>